<svg xmlns="http://www.w3.org/2000/svg" width="23.711" height="18.442" viewBox="0 0 23.711 18.442">
  <path id="shopping-basket" d="M23.711,39.571v.659a.988.988,0,0,1-.988.988h-.329l-1.075,7.524a1.976,1.976,0,0,1-1.956,1.7H4.348a1.976,1.976,0,0,1-1.956-1.7L1.317,41.218H.988A.988.988,0,0,1,0,40.23v-.659a.988.988,0,0,1,.988-.988H3.76l4.4-6.044a1.317,1.317,0,0,1,2.131,1.55L7.018,38.584h9.675l-3.269-4.494a1.317,1.317,0,0,1,2.131-1.55l4.4,6.044h2.772A.988.988,0,0,1,23.711,39.571ZM12.843,46.816v-4.61a.988.988,0,0,0-1.976,0v4.61a.988.988,0,1,0,1.976,0Zm4.61,0v-4.61a.988.988,0,0,0-1.976,0v4.61a.988.988,0,1,0,1.976,0Zm-9.221,0v-4.61a.988.988,0,0,0-1.976,0v4.61a.988.988,0,1,0,1.976,0Z" transform="translate(0 -31.997)" fill="#fff"/>
</svg>
