<svg xmlns="http://www.w3.org/2000/svg" width="18.388" height="21.015" viewBox="0 0 18.388 21.015">
  <path id="user" d="M12.871,12.477c-1.178,0-1.744.657-3.678.657s-2.5-.657-3.678-.657A5.518,5.518,0,0,0,0,17.994v1.051a1.971,1.971,0,0,0,1.97,1.97H16.418a1.971,1.971,0,0,0,1.97-1.97V17.994A5.518,5.518,0,0,0,12.871,12.477Zm3.546,6.567H1.97V17.994a3.552,3.552,0,0,1,3.546-3.546,16.07,16.07,0,0,0,3.678.657,15.916,15.916,0,0,0,3.678-.657,3.552,3.552,0,0,1,3.546,3.546ZM9.194,11.821a5.91,5.91,0,1,0-5.91-5.91A5.912,5.912,0,0,0,9.194,11.821Zm0-9.851a3.94,3.94,0,1,1-3.94,3.94A3.947,3.947,0,0,1,9.194,1.97Z" fill="#fff"/>
</svg>
